<svg width="56" height="56" viewBox="0 0 56 56" fill="none" xmlns="http://www.w3.org/2000/svg">
<path d="M56 28C56 43.464 43.464 56 28 56C12.536 56 0 43.464 0 28C0 12.536 12.536 0 28 0C43.464 0 56 12.536 56 28Z" fill="url(#paint0_linear_13422_204)"/>
<path d="M40.1381 19.3899C39.4904 18.8734 38.5466 18.9798 38.0301 19.6276L24.9464 36.0364C24.7604 36.2697 24.4128 36.2892 24.2019 36.0783L17.8649 29.7413C17.2791 29.1555 16.3294 29.1555 15.7436 29.7413C15.1578 30.3271 15.1578 31.2768 15.7436 31.8626L22.0806 38.1996C23.5572 39.6762 25.9901 39.5395 27.292 37.9067L40.3757 21.4979C40.8922 20.8501 40.7858 19.9064 40.1381 19.3899Z" fill="white"/>
<defs>
<linearGradient id="paint0_linear_13422_204" x1="28" y1="56" x2="28" y2="-1.41898e-06" gradientUnits="userSpaceOnUse">
<stop stop-color="#7DBA6E"/>
<stop offset="0.9531" stop-color="#C6E99A"/>
</linearGradient>
</defs>
</svg>
