<svg width="56" height="56" viewBox="0 0 56 56" fill="none" xmlns="http://www.w3.org/2000/svg">
<path d="M56 28C56 43.464 43.464 56 28 56C12.536 56 0 43.464 0 28C0 12.536 12.536 0 28 0C43.464 0 56 12.536 56 28Z" fill="url(#paint0_linear_13469_1579)"/>
<path d="M25.3267 34.0455V33.9006C25.3428 32.3632 25.5038 31.1397 25.8097 30.2301C26.1155 29.3205 26.5502 28.584 27.1136 28.0206C27.6771 27.4571 28.3532 26.938 29.142 26.4631C29.617 26.1733 30.0436 25.8312 30.4219 25.4368C30.8002 25.0343 31.098 24.5715 31.3153 24.0483C31.5407 23.5251 31.6534 22.9455 31.6534 22.3097C31.6534 21.5208 31.4683 20.8366 31.098 20.2571C30.7277 19.6776 30.2327 19.2308 29.6129 18.9169C28.9931 18.603 28.3049 18.446 27.5483 18.446C26.8883 18.446 26.2524 18.5829 25.6406 18.8565C25.0289 19.1302 24.5178 19.5608 24.1072 20.1484C23.6967 20.736 23.4593 21.5047 23.3949 22.4545H20.3523C20.4167 21.0862 20.7708 19.915 21.4148 18.9411C22.0668 17.9671 22.924 17.2225 23.9865 16.7074C25.0571 16.1922 26.2443 15.9347 27.5483 15.9347C28.965 15.9347 30.1965 16.2164 31.2429 16.7798C32.2973 17.3433 33.1103 18.116 33.6818 19.098C34.2614 20.08 34.5511 21.1989 34.5511 22.4545C34.5511 23.34 34.4143 24.1409 34.1406 24.8572C33.875 25.5736 33.4886 26.2135 32.9815 26.777C32.4825 27.3404 31.8788 27.8395 31.1705 28.2741C30.4621 28.7169 29.8947 29.1837 29.468 29.6747C29.0414 30.1577 28.7315 30.7332 28.5384 31.4013C28.3452 32.0694 28.2405 32.9025 28.2244 33.9006V34.0455H25.3267ZM26.8722 41.1932C26.2765 41.1932 25.7654 40.9799 25.3388 40.5533C24.9122 40.1267 24.6989 39.6155 24.6989 39.0199C24.6989 38.4242 24.9122 37.9131 25.3388 37.4865C25.7654 37.0599 26.2765 36.8466 26.8722 36.8466C27.4678 36.8466 27.9789 37.0599 28.4055 37.4865C28.8322 37.9131 29.0455 38.4242 29.0455 39.0199C29.0455 39.4143 28.9448 39.7765 28.7436 40.1065C28.5504 40.4366 28.2888 40.7022 27.9588 40.9034C27.6368 41.0966 27.2746 41.1932 26.8722 41.1932Z" fill="white"/>
<defs>
<linearGradient id="paint0_linear_13469_1579" x1="28" y1="0" x2="28" y2="56" gradientUnits="userSpaceOnUse">
<stop stop-color="#ADE3FA"/>
<stop offset="1" stop-color="#4886E8"/>
</linearGradient>
</defs>
</svg>
