<svg width="119" height="32" viewBox="0 0 119 32" fill="none" xmlns="http://www.w3.org/2000/svg">
<path d="M118.019 20.3216V18.4968C118.019 17.7322 117.851 16.9785 117.526 16.2869L113.894 8.53873C113.07 6.78143 111.305 5.65917 109.363 5.65917H102.203C101.137 5.65917 100.225 6.42011 100.033 7.46938L97.7084 20.2066C97.6445 20.5533 97.3434 20.8052 96.9912 20.8052C96.5386 20.8052 96.1956 20.3982 96.2722 19.953L99.2521 2.52048C99.4273 1.48946 98.6335 0.547852 97.5879 0.547852H57.3434C55.9821 0.547852 54.8799 1.65004 54.8799 3.01136C54.8799 4.37267 55.9821 5.47486 57.3434 5.47486H66.9857C68.2302 5.47486 69.1737 6.5953 68.9638 7.81975C68.7996 8.78325 67.9638 9.48946 66.9857 9.48946H60.4456C59.0843 9.48946 57.9821 10.5916 57.9821 11.953C57.9821 13.3143 59.0843 14.4165 60.4456 14.4165H65.4584C66.7029 14.4165 67.6463 15.5369 67.4365 16.7614L66.8762 20.0351C66.8051 20.4457 66.577 20.8125 66.2412 21.0606C65.9292 21.2887 65.7102 21.6537 65.6609 22.0789L65.4729 23.7431C65.3762 24.6062 66.0094 25.3654 66.8288 25.3654H69.4237C69.8489 25.3654 70.2029 25.0442 70.2503 24.6227C70.6025 21.4457 73.1865 18.9785 76.3233 18.9785C79.4602 18.9785 82.0423 21.4457 82.3963 24.6227C82.4438 25.0442 82.7978 25.3654 83.2229 25.3654H101.179C101.604 25.3654 101.958 25.0442 102.006 24.6227C102.358 21.4457 104.942 18.9785 108.079 18.9785C111.216 18.9785 113.798 21.4457 114.152 24.6227C114.199 25.0442 114.553 25.3654 114.978 25.3654H117.384C118.075 25.3654 118.657 24.8179 118.739 24.088L118.927 22.4238C118.988 21.8964 118.772 21.4092 118.411 21.1081C118.174 20.911 118.024 20.6281 118.024 20.3197L118.019 20.3216ZM112.761 14.9402H102.924C102.612 14.9402 102.376 14.6573 102.433 14.3508L103.345 9.3526C103.389 9.11537 103.595 8.94201 103.836 8.94201H109.212C110.54 8.94201 111.719 9.78873 112.144 11.0479L113.234 14.2814C113.343 14.6044 113.103 14.9402 112.761 14.9402Z" fill="#1975FF"/>
<path d="M80.5299 26.5495C81.3866 23.9742 80.1624 21.2483 77.7956 20.4609C75.4288 19.6736 72.8156 21.123 71.9589 23.6983C71.1022 26.2736 72.3264 28.9996 74.6932 29.7869C77.0601 30.5743 79.6732 29.1248 80.5299 26.5495Z" fill="#1975FF"/>
<path d="M112.261 26.5495C113.118 23.9742 111.894 21.2483 109.527 20.4609C107.16 19.6736 104.547 21.123 103.69 23.6983C102.834 26.2736 104.058 28.9996 106.425 29.7869C108.792 30.5743 111.405 29.1248 112.261 26.5495Z" fill="#1975FF"/>
<path d="M50.409 0.547852H46.0294C44.6689 0.547852 43.5659 1.6508 43.5659 3.01135C43.5659 4.37191 44.6689 5.47486 46.0294 5.47486H50.409C51.7695 5.47486 52.8725 4.37191 52.8725 3.01135C52.8725 1.6508 51.7695 0.547852 50.409 0.547852Z" fill="#1975FF"/>
<path d="M53.5112 9.48926H52.0514C50.6908 9.48926 49.5879 10.5922 49.5879 11.9528C49.5879 13.3133 50.6908 14.4163 52.0514 14.4163H53.5112C54.8718 14.4163 55.9748 13.3133 55.9748 11.9528C55.9748 10.5922 54.8718 9.48926 53.5112 9.48926Z" fill="#1975FF"/>
<path d="M12.1433 2.70902V12H1.84535V2.70902H3.79216V10.4426H6.07463V2.70902H7.91403V10.4426H10.2099V2.70902H12.1433ZM21.1132 12H19.1664V8.2675C19.1664 6.99648 19.2604 5.80601 19.4483 4.69611L16.5214 12H14.1047V2.70902H16.0515V6.4818C16.0515 7.23367 16.0246 7.86023 15.9709 8.36148C15.9262 8.85378 15.8591 9.39978 15.7695 9.99949L18.7502 2.70902H21.1132V12ZM33.089 7.3008C33.089 8.63448 32.7041 9.64593 31.9344 10.3351C31.1646 11.0154 30.095 11.3779 28.7255 11.4227V12.5102H26.8055V11.4092C25.4181 11.3466 24.344 10.9796 23.5832 10.3083C22.8224 9.62803 22.442 8.63896 22.442 7.34108C22.442 6.00741 22.8269 5.00044 23.5966 4.32017C24.3664 3.63096 25.436 3.26397 26.8055 3.21922V2.21225H28.7255V3.23264C30.1129 3.2953 31.187 3.66676 31.9478 4.34702C32.7086 5.01834 33.089 6.00293 33.089 7.3008ZM28.6449 10.1606C29.4953 10.1069 30.1129 9.8518 30.4977 9.3953C30.8826 8.93881 31.0751 8.24064 31.0751 7.3008C31.0751 6.37887 30.8782 5.68965 30.4843 5.23316C30.0905 4.77667 29.4774 4.52604 28.6449 4.48129V10.1606ZM24.4559 7.34108C24.4559 8.26302 24.6528 8.95224 25.0467 9.40873C25.4405 9.86522 26.0537 10.1158 26.8861 10.1606V4.48129C26.0358 4.53499 25.4181 4.79009 25.0333 5.24659C24.6484 5.70308 24.4559 6.40124 24.4559 7.34108ZM40.1052 2.70902L39.8904 4.25304H37.5408V12H35.5671V4.25304H33.0967V2.70902H40.1052Z" fill="#1975FF"/>
<path d="M4.27551 18.0371C5.72554 18.0371 6.88468 18.3683 7.75291 19.0307C8.63009 19.6841 9.06869 20.888 9.06869 22.6424C9.06869 24.3609 8.63905 25.5738 7.77976 26.2809C6.92943 26.979 5.83743 27.3281 4.50375 27.3281H1.84535V18.0371H4.27551ZM3.81901 19.4872V25.8781H4.62459C5.38541 25.8781 5.97169 25.6454 6.38343 25.1799C6.80412 24.7055 7.01447 23.8597 7.01447 22.6424C7.01447 21.801 6.90706 21.1476 6.69224 20.6821C6.48637 20.2167 6.20889 19.9034 5.85981 19.7423C5.51072 19.5722 5.08556 19.4872 4.58431 19.4872H3.81901ZM16.1227 18.0371L15.9079 19.4738H12.5513V21.8905H15.4783V23.3137H12.5513V25.8781H16.1496V27.3281H10.5777V18.0371H16.1227ZM19.6447 18.0371V25.7438H23.3235L23.1087 27.3281H17.671V18.0371H19.6447ZM26.4758 18.0371V27.3281H24.5022V18.0371H26.4758ZM35.1888 18.0371L32.5169 27.3281H30.1136L27.3478 18.0371H29.4557L31.3488 25.6901L33.1748 18.0371H35.1888ZM41.6117 18.0371L41.3968 19.4738H38.0403V21.8905H40.9672V23.3137H38.0403V25.8781H41.6385V27.3281H36.0666V18.0371H41.6117ZM46.1406 23.6896H45.1336V27.3281H43.16V18.0371H46.0601C47.3042 18.0371 48.2396 18.2699 48.8661 18.7353C49.4927 19.1918 49.806 19.8855 49.806 20.8164C49.806 21.425 49.6538 21.9263 49.3495 22.3201C49.0541 22.714 48.5931 23.0496 47.9666 23.3271L50.3699 27.3281H48.1277L46.1406 23.6896ZM45.1336 22.2933H46.1675C46.6956 22.2933 47.0939 22.1769 47.3624 21.9442C47.6309 21.7025 47.7652 21.3266 47.7652 20.8164C47.7652 20.342 47.622 19.9974 47.3356 19.7826C47.0581 19.5588 46.6195 19.4469 46.0198 19.4469H45.1336V22.2933ZM57.9018 18.0371L54.9212 23.8239V27.3281H52.9475V23.8373L49.9669 18.0371H52.1285L53.9813 22.253L55.8207 18.0371H57.9018Z" fill="#1975FF"/>
</svg>
